<mxfile host="app.diagrams.net" modified="2023-07-31T11:49:57.512Z" agent="Mozilla/5.0 (Windows NT 10.0; Win64; x64) AppleWebKit/537.36 (KHTML, like Gecko) Chrome/115.0.0.0 Safari/537.36" etag="My8Bh0CrpeLeDDJ0GKxx" version="21.6.6" type="device">
  <diagram name="Page-1" id="PAZhMdqq3LgmJLcaqZD_">
    <mxGraphModel dx="1376" dy="768" grid="1" gridSize="10" guides="1" tooltips="1" connect="1" arrows="1" fold="1" page="1" pageScale="1" pageWidth="850" pageHeight="1100" math="0" shadow="0">
      <root>
        <mxCell id="0" />
        <mxCell id="1" parent="0" />
        <mxCell id="NYck-VyZ_F-q_uD9N16r-1" value="Function: g_cc_ac_coolingOn&#xa;&#xa;&#xa;&#xa;Description:&#xa;    This function turns on the cooling mechanism&#xa;&#xa;&#xa;&#xa;Parameters In:&#xa;    None&#xa;&#xa;&#xa;&#xa;Parameters Out:&#xa;    None&#xa;&#xa;&#xa;&#xa;Return Value:&#xa;    None" style="text;whiteSpace=wrap;" vertex="1" parent="1">
          <mxGeometry x="510" y="20" width="300" height="420" as="geometry" />
        </mxCell>
        <mxCell id="NYck-VyZ_F-q_uD9N16r-3" style="edgeStyle=orthogonalEdgeStyle;rounded=0;orthogonalLoop=1;jettySize=auto;html=1;" edge="1" parent="1" source="NYck-VyZ_F-q_uD9N16r-2" target="NYck-VyZ_F-q_uD9N16r-4">
          <mxGeometry relative="1" as="geometry">
            <mxPoint x="220" y="200" as="targetPoint" />
          </mxGeometry>
        </mxCell>
        <mxCell id="NYck-VyZ_F-q_uD9N16r-2" value="" style="ellipse;whiteSpace=wrap;html=1;" vertex="1" parent="1">
          <mxGeometry x="160" y="50" width="120" height="80" as="geometry" />
        </mxCell>
        <mxCell id="NYck-VyZ_F-q_uD9N16r-5" style="edgeStyle=orthogonalEdgeStyle;rounded=0;orthogonalLoop=1;jettySize=auto;html=1;" edge="1" parent="1" source="NYck-VyZ_F-q_uD9N16r-4" target="NYck-VyZ_F-q_uD9N16r-6">
          <mxGeometry relative="1" as="geometry">
            <mxPoint x="220" y="290" as="targetPoint" />
          </mxGeometry>
        </mxCell>
        <mxCell id="NYck-VyZ_F-q_uD9N16r-4" value="&amp;nbsp;call&amp;nbsp;g_cc_ac_coolingOn" style="rounded=1;whiteSpace=wrap;html=1;" vertex="1" parent="1">
          <mxGeometry x="140" y="200" width="160" height="60" as="geometry" />
        </mxCell>
        <mxCell id="NYck-VyZ_F-q_uD9N16r-7" value="yes" style="edgeStyle=orthogonalEdgeStyle;rounded=0;orthogonalLoop=1;jettySize=auto;html=1;entryX=0;entryY=0.5;entryDx=0;entryDy=0;" edge="1" parent="1" source="NYck-VyZ_F-q_uD9N16r-6" target="NYck-VyZ_F-q_uD9N16r-8">
          <mxGeometry relative="1" as="geometry">
            <mxPoint x="360" y="340" as="targetPoint" />
          </mxGeometry>
        </mxCell>
        <mxCell id="NYck-VyZ_F-q_uD9N16r-19" value="no" style="edgeStyle=orthogonalEdgeStyle;rounded=0;orthogonalLoop=1;jettySize=auto;html=1;" edge="1" parent="1" source="NYck-VyZ_F-q_uD9N16r-6" target="NYck-VyZ_F-q_uD9N16r-20">
          <mxGeometry relative="1" as="geometry">
            <mxPoint x="220" y="490" as="targetPoint" />
          </mxGeometry>
        </mxCell>
        <mxCell id="NYck-VyZ_F-q_uD9N16r-6" value="if &lt;br&gt;AC_ON_OFF&lt;br&gt;true" style="rhombus;whiteSpace=wrap;html=1;" vertex="1" parent="1">
          <mxGeometry x="155" y="340" width="130" height="80" as="geometry" />
        </mxCell>
        <mxCell id="NYck-VyZ_F-q_uD9N16r-9" style="edgeStyle=orthogonalEdgeStyle;rounded=0;orthogonalLoop=1;jettySize=auto;html=1;" edge="1" parent="1" source="NYck-VyZ_F-q_uD9N16r-8" target="NYck-VyZ_F-q_uD9N16r-10">
          <mxGeometry relative="1" as="geometry">
            <mxPoint x="460" y="480" as="targetPoint" />
          </mxGeometry>
        </mxCell>
        <mxCell id="NYck-VyZ_F-q_uD9N16r-8" value="set pwmData input 6 to AC_ON" style="rounded=1;whiteSpace=wrap;html=1;" vertex="1" parent="1">
          <mxGeometry x="400" y="350" width="120" height="60" as="geometry" />
        </mxCell>
        <mxCell id="NYck-VyZ_F-q_uD9N16r-15" style="edgeStyle=orthogonalEdgeStyle;rounded=0;orthogonalLoop=1;jettySize=auto;html=1;entryX=0.5;entryY=0;entryDx=0;entryDy=0;" edge="1" parent="1" source="NYck-VyZ_F-q_uD9N16r-10" target="NYck-VyZ_F-q_uD9N16r-11">
          <mxGeometry relative="1" as="geometry" />
        </mxCell>
        <mxCell id="NYck-VyZ_F-q_uD9N16r-10" value="coolingSystem&#39;s compressor gets enabled" style="rounded=1;whiteSpace=wrap;html=1;" vertex="1" parent="1">
          <mxGeometry x="400" y="440" width="120" height="60" as="geometry" />
        </mxCell>
        <mxCell id="NYck-VyZ_F-q_uD9N16r-16" style="edgeStyle=orthogonalEdgeStyle;rounded=0;orthogonalLoop=1;jettySize=auto;html=1;entryX=0.5;entryY=0;entryDx=0;entryDy=0;" edge="1" parent="1" source="NYck-VyZ_F-q_uD9N16r-11" target="NYck-VyZ_F-q_uD9N16r-12">
          <mxGeometry relative="1" as="geometry" />
        </mxCell>
        <mxCell id="NYck-VyZ_F-q_uD9N16r-11" value="coolingSystem&#39;s condenser gets enabled" style="rounded=1;whiteSpace=wrap;html=1;" vertex="1" parent="1">
          <mxGeometry x="400" y="530" width="120" height="60" as="geometry" />
        </mxCell>
        <mxCell id="NYck-VyZ_F-q_uD9N16r-17" style="edgeStyle=orthogonalEdgeStyle;rounded=0;orthogonalLoop=1;jettySize=auto;html=1;entryX=0.5;entryY=0;entryDx=0;entryDy=0;" edge="1" parent="1" source="NYck-VyZ_F-q_uD9N16r-12" target="NYck-VyZ_F-q_uD9N16r-13">
          <mxGeometry relative="1" as="geometry" />
        </mxCell>
        <mxCell id="NYck-VyZ_F-q_uD9N16r-12" value="coolingSystem&#39;s evaporator gets enabled" style="rounded=1;whiteSpace=wrap;html=1;" vertex="1" parent="1">
          <mxGeometry x="400" y="620" width="120" height="60" as="geometry" />
        </mxCell>
        <mxCell id="NYck-VyZ_F-q_uD9N16r-18" style="edgeStyle=orthogonalEdgeStyle;rounded=0;orthogonalLoop=1;jettySize=auto;html=1;" edge="1" parent="1" source="NYck-VyZ_F-q_uD9N16r-13" target="NYck-VyZ_F-q_uD9N16r-14">
          <mxGeometry relative="1" as="geometry" />
        </mxCell>
        <mxCell id="NYck-VyZ_F-q_uD9N16r-13" value="coolingSystem&#39;s expansion_valve gets enabled" style="rounded=1;whiteSpace=wrap;html=1;" vertex="1" parent="1">
          <mxGeometry x="400" y="710" width="120" height="60" as="geometry" />
        </mxCell>
        <mxCell id="NYck-VyZ_F-q_uD9N16r-23" style="edgeStyle=orthogonalEdgeStyle;rounded=0;orthogonalLoop=1;jettySize=auto;html=1;entryX=1;entryY=0.5;entryDx=0;entryDy=0;" edge="1" parent="1" source="NYck-VyZ_F-q_uD9N16r-14" target="NYck-VyZ_F-q_uD9N16r-22">
          <mxGeometry relative="1" as="geometry" />
        </mxCell>
        <mxCell id="NYck-VyZ_F-q_uD9N16r-14" value="coolingSystem&#39;s enable assigned to true" style="rounded=1;whiteSpace=wrap;html=1;" vertex="1" parent="1">
          <mxGeometry x="400" y="800" width="120" height="60" as="geometry" />
        </mxCell>
        <mxCell id="NYck-VyZ_F-q_uD9N16r-21" style="edgeStyle=orthogonalEdgeStyle;rounded=0;orthogonalLoop=1;jettySize=auto;html=1;" edge="1" parent="1" source="NYck-VyZ_F-q_uD9N16r-20" target="NYck-VyZ_F-q_uD9N16r-22">
          <mxGeometry relative="1" as="geometry">
            <mxPoint x="220" y="900" as="targetPoint" />
          </mxGeometry>
        </mxCell>
        <mxCell id="NYck-VyZ_F-q_uD9N16r-20" value="print warning to stderr" style="rounded=1;whiteSpace=wrap;html=1;" vertex="1" parent="1">
          <mxGeometry x="160" y="510" width="120" height="60" as="geometry" />
        </mxCell>
        <mxCell id="NYck-VyZ_F-q_uD9N16r-24" style="edgeStyle=orthogonalEdgeStyle;rounded=0;orthogonalLoop=1;jettySize=auto;html=1;" edge="1" parent="1" source="NYck-VyZ_F-q_uD9N16r-22" target="NYck-VyZ_F-q_uD9N16r-25">
          <mxGeometry relative="1" as="geometry">
            <mxPoint x="220" y="920" as="targetPoint" />
          </mxGeometry>
        </mxCell>
        <mxCell id="NYck-VyZ_F-q_uD9N16r-22" value="" style="rhombus;whiteSpace=wrap;html=1;" vertex="1" parent="1">
          <mxGeometry x="195" y="805" width="50" height="50" as="geometry" />
        </mxCell>
        <mxCell id="NYck-VyZ_F-q_uD9N16r-25" value="" style="ellipse;whiteSpace=wrap;html=1;labelBackgroundColor=default;" vertex="1" parent="1">
          <mxGeometry x="160" y="900" width="120" height="80" as="geometry" />
        </mxCell>
      </root>
    </mxGraphModel>
  </diagram>
</mxfile>
